<svg width="71" height="31" viewBox="0 0 71 31" fill="none" xmlns="http://www.w3.org/2000/svg">
<path fill-rule="evenodd" clip-rule="evenodd" d="M15.7649 0H15.7605C15.762 0.0873964 15.7627 0.174969 15.7627 0.262712C15.7627 8.82312 8.82312 15.7627 0.262712 15.7627C0.174969 15.7627 0.0873964 15.762 0 15.7605V15.7649C0.0873964 15.7634 0.174969 15.7627 0.262712 15.7627C8.73538 15.7627 15.6203 22.5608 15.7605 31H15.7649C15.9037 22.6482 22.6482 15.9037 31 15.7649V15.7605C22.5608 15.6203 15.7627 8.73538 15.7627 0.262712C15.7627 0.174969 15.7634 0.0873964 15.7649 0Z" fill="#D4BDB1"/>
<path fill-rule="evenodd" clip-rule="evenodd" d="M55.7649 0H55.7605C55.762 0.0873964 55.7627 0.174969 55.7627 0.262712C55.7627 8.82312 48.8231 15.7627 40.2627 15.7627C40.175 15.7627 40.0874 15.762 40 15.7605V15.7649C40.0874 15.7634 40.175 15.7627 40.2627 15.7627C48.7354 15.7627 55.6203 22.5608 55.7605 31H55.7649C55.9037 22.6482 62.6482 15.9037 71 15.7649V15.7605C62.5608 15.6203 55.7627 8.73538 55.7627 0.262712C55.7627 0.174969 55.7634 0.0873964 55.7649 0Z" fill="#D4BDB1"/>
</svg>
