<svg width="180" height="192" viewBox="0 0 180 192" fill="none" xmlns="http://www.w3.org/2000/svg">
<path d="M178.986 65.3005C178.986 65.3005 178.863 65.2513 178.813 65.2513C178.245 65.0049 177.651 64.8325 177.058 64.7586C177.058 64.8078 177.108 64.8571 177.157 64.8571C176.045 65.0296 175.352 65.9657 174.364 66.4091C173.251 66.9265 172.04 66.5569 170.878 66.7048C169.592 66.8772 168.332 67.567 167.046 67.8872C165.736 68.2321 164.648 68.8726 163.387 69.3161C162.497 69.6363 161.014 69.6363 160.47 68.7002C160.322 68.4292 160.544 68.109 160.52 67.8133C160.47 67.296 160.223 66.7048 159.951 66.2367C159.284 65.0296 157.899 64.3151 156.91 63.379C155.922 62.4429 154.982 61.4575 153.845 60.6938C152.634 59.8562 151.546 59.2896 150.681 58.0578C149.989 57.0724 149.469 55.9885 148.703 55.077C147.788 53.993 146.429 53.4264 145.539 52.3425C144.822 51.4802 144.748 50.3716 144.154 49.4601C143.586 48.5486 142.523 48.2284 141.806 47.4893C141.386 47.0459 141.484 46.2083 141.435 45.6417C141.163 42.2913 138.543 40.4929 136.787 37.9063C136.169 36.9948 136.441 36.0586 136.268 35.0486C136.071 33.9154 135.304 33.1517 134.439 32.4619C133.425 31.6736 132.461 30.9838 131.769 29.8752C130.953 28.5942 130.36 27.2146 129.742 25.835C130.854 25.0221 132.412 24.9974 132.535 23.2976C132.634 21.7949 131.967 20.095 131.374 18.7401C130.335 16.3505 128.432 16.0549 126.083 15.5375C124.254 15.1434 123.092 14.429 121.287 15.3405C119.73 16.1288 118.469 16.6708 116.689 16.449C114.934 16.2273 113.278 15.6114 111.597 15.1434C110.855 14.9463 110.163 14.7985 109.471 14.429C108.853 14.0841 108.235 13.616 107.518 13.5175C106.727 12.8277 104.848 13.2711 103.661 13.1479C103.661 13.0494 103.463 12.4581 103.463 12.3596C103.414 12.3842 103.34 12.4089 103.266 12.3596C103.266 11.9654 103.117 11.6206 103.043 11.3249C101.164 10.5612 98.2472 11.1032 97.2583 13.0248C96.7145 14.0841 97.3572 15.3405 96.7886 16.3505C95.9728 17.804 94.2671 17.2374 93.031 16.8432C92.2152 15.9317 90.015 15.5375 89.0756 16.1534C88.8284 16.1534 88.3093 16.0302 87.9385 15.8085C87.9632 15.5868 87.9632 14.9956 87.8643 14.8231C87.8643 14.8231 87.444 14.2565 87.444 14.5029C87.444 14.3551 87.444 14.2072 87.444 14.0594C87.444 14.0102 86.8754 13.7638 86.826 13.7145C86.653 13.616 86.4552 13.5175 86.2574 13.4436C85.8372 13.2711 85.4416 13.0494 85.0708 12.803C84.6258 12.7045 84.255 12.5321 83.8347 12.3596C83.3898 12.1872 82.9201 12.0886 82.4751 11.9901C81.9559 11.8669 81.4368 11.7437 80.8929 11.6206C80.0524 11.3742 79.2119 11.0786 78.3466 10.8815C77.7039 10.7337 77.0611 10.7583 76.4431 10.4627C76.3442 10.3642 76.1959 10.2163 75.9487 10.0439C75.479 9.72365 75.4296 9.20631 75.5037 8.71361C75.5037 8.39335 75.6026 8.04846 75.7509 7.75284C75.8498 7.53112 76.0229 7.35867 75.9981 7.06305C75.9981 6.57035 75.5532 6.15155 75.2565 5.78202C74.9598 5.38786 74.7868 4.79662 74.6138 4.35318C74.9598 3.93439 75.0835 3.44168 75.0587 2.82581C75.0587 2.87508 75.1082 2.92435 75.1082 2.89971C75.0093 2.62872 75.0093 2.62872 74.7621 2.45628C74.6632 1.86503 73.4271 0.781088 72.463 0.928899C72.1169 0.608642 72.3394 0.707182 71.7955 0.657912C71.4 0.31302 71.2764 0.337655 70.7325 0.189844C70.4112 -0.00723688 69.9909 -0.0811423 69.3976 0.115939C68.8784 -0.105777 68.1863 0.26375 68.2357 0.31302C67.6671 1.05207 66.703 1.66795 65.7636 1.27379C65.4422 1.27379 65.2197 1.27379 64.8983 1.27379C64.5275 0.731818 63.8353 0.559372 63.1431 0.731818C62.1296 -0.0565072 61.6104 1.17525 60.671 1.32306C59.3361 1.52014 58.1 0.608642 56.7404 0.928899C56.6909 0.854993 56.6909 0.756453 56.7404 0.657912C54.9852 0.559372 51.4253 2.11139 50.1151 3.21997C49.2746 3.26924 47.9644 3.49095 46.9755 3.95902C46.9755 3.86048 46.9261 3.78658 46.8766 3.73731C46.3328 3.95902 45.8383 3.93439 45.3439 4.23001C44.7753 4.10683 44.1573 4.23001 43.6629 4.59954C43.4157 4.59954 42.8471 4.59954 42.5257 4.47636C42.1302 4.501 41.0919 4.40246 40.8941 4.35318C40.9683 4.25464 40.4986 4.1561 40.3255 4.1561C40.3255 3.73731 40.3255 3.83585 39.9794 3.34314C39.9794 3.36778 40.0289 3.39241 40.0536 3.41705C40.1525 2.03748 38.4714 1.66795 37.4084 2.06212C36.4938 2.40701 36.296 3.63877 35.8757 4.37782C34.6891 6.49644 32.7114 7.06305 30.6348 8.02382C28.4099 9.0585 26.5064 10.7337 25.8884 13.1479C25.5917 14.2565 25.7153 15.3651 25.1715 16.3998C24.5782 17.533 23.6388 18.4938 22.6994 19.3314C21.7105 20.2182 20.7217 20.9819 19.4609 21.4007C18.1507 21.8441 17.0135 22.2876 16.1977 23.4701C15.4561 24.5294 14.6897 25.3916 13.6514 26.1307C12.6873 26.8204 11.6737 27.4363 10.9074 28.3725C10.141 29.3086 9.64659 30.4664 8.90496 31.4765C8.1386 32.5358 7.29808 33.5458 6.48228 34.5805C5.04846 36.4282 3.3427 38.596 3.24381 41.0103C5.34511 41.4784 3.98545 44.0404 3.88656 45.42C3.8124 46.43 3.98545 47.4401 3.96073 48.4747C3.96073 49.4355 3.6888 50.3963 3.36742 51.3078C2.74939 53.1061 1.90887 55.077 0.821142 56.6782C0.277277 57.4912 -0.192425 58.2303 0.079508 59.2403C0.376162 60.275 0.746979 61.1865 0.895306 62.2458C1.19196 64.2412 1.83471 66.1135 3.19437 67.6409C4.6282 69.2668 6.30924 70.6956 7.64418 72.4201C9.02856 74.1938 9.47354 76.2632 10.4624 78.2586C10.9815 79.2933 11.6737 80.2048 12.5884 80.8946C13.3795 81.5105 14.2942 81.9785 14.9616 82.7176C15.9752 83.8508 16.5438 85.2797 17.6562 86.339C18.5709 87.1766 19.6587 87.8417 20.9194 87.9895C22.2544 88.1373 23.5646 87.7678 24.8254 87.3736C26.185 86.9302 27.6189 86.6346 29.0527 86.5114C30.6596 86.3636 32.2912 86.3636 33.8733 86.61C35.233 86.8317 36.5926 87.2505 37.977 87.2997C39.7075 87.3736 40.993 86.5607 42.5999 86.0926C43.9843 85.6738 45.4181 85.5999 46.8272 85.4028C48.4835 85.1811 49.596 84.6391 51.0545 83.8262C52.0681 83.2596 53.23 83.1118 54.1694 83.9494C55.084 84.7623 55.9246 85.6985 56.7651 86.5853C57.482 87.3736 58.2978 88.3837 59.3361 88.7532C60.8688 89.2952 62.5498 88.7532 64.132 89.1966C65.2444 89.5169 66.258 90.3545 67.0738 91.1428C67.9885 92.0297 68.4335 92.8426 68.3346 94.1237C68.2357 95.3554 67.8649 96.6365 68.1368 97.8682C67.5188 99.4449 66.4558 101.12 66.7277 102.894C67.0244 104.791 68.7796 106.318 70.0403 107.673C72.7597 110.58 75.0835 113.906 77.0117 117.379C77.4814 118.241 78.05 119.104 78.3714 120.04C78.7175 121.001 78.495 122.011 78.4703 122.971C78.4208 124.597 79.3355 125.878 80.0277 127.258C81.7829 130.781 78.4208 133.269 78.1242 136.669H77.9511C77.1848 138.393 76.4926 140.191 76.0723 142.039C75.4296 144.971 75.652 147.951 76.9375 150.686C78.2725 153.519 80.6704 155.514 82.2526 158.175C83.0931 159.579 83.2909 161.107 83.4392 162.708C83.5875 164.285 83.9831 165.615 84.4033 167.118C84.8236 168.596 84.7 170.172 85.0214 171.675C85.3675 173.276 86.381 174.607 87.271 175.962C88.2845 177.489 89.3228 178.992 90.3858 180.495C91.0039 181.357 91.8197 182.047 92.413 182.933C93.1052 183.968 92.6355 184.781 92.3141 185.84C92.0174 186.85 92.6602 187.762 93.2782 188.501C94.539 190.004 96.7639 192.048 98.8899 191.999C102.079 191.901 104.798 190.078 108.061 190.496C109.693 190.693 110.929 190.447 112.338 189.56C113.5 188.821 114.613 188.181 115.898 187.688C117.233 187.171 118.617 186.678 119.853 185.914C121.09 185.151 122.004 184.017 122.919 182.909C123.982 181.603 124.971 180.248 126.009 178.942C126.899 177.834 128.036 176.824 128.753 175.592C129.544 174.188 129.198 172.734 129.421 171.232C129.618 170.025 130.187 168.645 131.027 167.733C131.992 166.674 133.524 166.576 134.612 165.689C135.551 164.925 136.046 163.718 136.268 162.56C136.763 160.023 135.947 157.535 136.219 155.022C136.441 152.879 138.147 151.622 139.68 150.316C142.102 148.296 144.525 146.227 147.294 144.675C149.395 143.517 151.768 142.458 152.955 140.241C154.488 137.408 153.499 133.934 153.87 130.879C154.043 129.377 154.809 127.677 153.796 126.297C153.153 125.435 152.09 125.065 151.472 124.203C150.433 122.799 151.323 121.198 151.15 119.67C151.002 118.414 150.063 117.527 149.618 116.394C148.777 114.3 150.607 111.738 151.768 110.112C153.351 107.87 155.477 106.146 157.207 104.027C158.147 102.869 158.715 101.49 159.58 100.282C160.396 99.1985 161.484 98.4102 162.423 97.4248C164.599 95.1337 166.329 92.6948 168.875 90.7487H168.505C170.507 90.5762 170.977 87.7678 171.471 86.2651C171.817 85.2058 172.411 84.4174 173.128 83.5798C174.191 82.3481 174.512 81.1656 174.809 79.5889C175.352 76.7559 177.948 74.7851 178.467 71.9767C178.764 70.3015 178.072 67.4684 180 66.5569C179.827 65.9657 179.382 65.7933 178.962 65.3005H178.986Z" fill="#F5F0ED"/>
</svg>
