<svg width="42" height="60" viewBox="0 0 42 60" fill="none" xmlns="http://www.w3.org/2000/svg">
<g clip-path="url(#clip0_621_25897)">
<path d="M37.8342 0H4.39473C4.39473 0 2.59682 0.547192 2.3623 2.21482H39.8753C39.6321 0.547192 37.8342 0 37.8342 0Z" fill="#D4BDB1"/>
<path d="M6.08008 3.39612H2.88379C3.29201 3.67406 3.56126 4.14308 3.56126 4.6729C3.56126 4.92478 3.49178 5.15929 3.38755 5.37643L3.59601 5.90625L13.6973 31.3724H14.175L6.28854 6.07128C6.193 6.02785 6.10614 5.96705 6.01928 5.90625C5.6458 5.61963 5.40261 5.17666 5.40261 4.6729C5.40261 4.14308 5.67186 3.67406 6.08008 3.39612Z" fill="#D4BDB1"/>
<path d="M35.5935 5.90625C35.5414 5.94099 35.4893 5.97574 35.4372 6.01048L27.542 31.3724H28.1847L38.2861 5.90625L38.4337 5.52409C38.2687 5.28089 38.1818 4.98558 38.1818 4.6729C38.1818 4.14308 38.4511 3.67406 38.8593 3.39612H35.5414C35.9496 3.67406 36.2189 4.14308 36.2189 4.6729C36.2189 5.20272 35.9757 5.61963 35.6022 5.90625H35.5935Z" fill="#D4BDB1"/>
<path d="M20.2459 3.39612H14.9043C15.3125 3.67406 15.5818 4.14308 15.5818 4.6729C15.5818 4.96821 15.4949 5.24615 15.3473 5.48066L15.3994 5.90625L18.6391 31.3724H19.968V5.71517C19.7161 5.43723 19.5598 5.07244 19.5598 4.6729C19.5598 4.14308 19.829 3.67406 20.2372 3.39612H20.2459Z" fill="#D4BDB1"/>
<path d="M13.1585 3.39612H7.81689C8.22512 3.67406 8.49437 4.14308 8.49437 4.6729C8.49437 4.78581 8.48568 4.89004 8.45963 4.99427H8.48568L8.75494 5.90625L16.129 31.3724H16.8238L12.9848 5.90625L12.9674 5.79334C12.6721 5.5154 12.4897 5.11586 12.4897 4.6729C12.4897 4.14308 12.759 3.67406 13.1672 3.39612H13.1585Z" fill="#D4BDB1"/>
<path d="M21.9917 3.39612C22.3999 3.67406 22.6692 4.14308 22.6692 4.6729C22.6692 4.99427 22.5736 5.28958 22.4086 5.54146V31.3724H23.0687L26.3084 5.90625L26.3519 5.59357C26.1608 5.333 26.0392 5.02032 26.0392 4.6729C26.0392 4.14308 26.3084 3.67406 26.7167 3.39612H21.9917Z" fill="#D4BDB1"/>
<path d="M28.7232 5.90625L24.8755 31.3724H25.5703L32.9444 5.90625L33.1789 5.10718C33.1355 4.96821 33.1094 4.82924 33.1094 4.6729C33.1094 4.14308 33.3787 3.67406 33.7869 3.39612H28.4453C28.8535 3.67406 29.1227 4.14308 29.1227 4.6729C29.1227 5.05506 28.9838 5.3938 28.7493 5.66305L28.7145 5.89757L28.7232 5.90625Z" fill="#D4BDB1"/>
<path d="M0.460123 4.6729C0.460123 4.14308 0.729376 3.67406 1.1376 3.39612H0.946515C0.946515 3.39612 0.920459 3.39612 0.877031 3.42217C-0.573461 4.03017 -0.113126 6.21893 1.46765 6.21893H1.66742L1.65005 6.18419C0.963886 6.02785 0.451437 5.41117 0.451437 4.68158L0.460123 4.6729Z" fill="#D4BDB1"/>
<path d="M40.9004 3.42217L40.8309 3.39612H40.5964C41.0046 3.67406 41.2739 4.14308 41.2739 4.6729C41.2739 5.35037 40.8396 5.91494 40.2403 6.13208L40.2056 6.21893H40.3098C41.8906 6.21893 42.3509 4.03885 40.9004 3.42217Z" fill="#D4BDB1"/>
<path d="M2.6665 8.62476C3.10947 19.2733 6.74873 28.1065 11.9948 31.3289L2.6665 8.62476Z" fill="#D4BDB1"/>
<path d="M30.1477 31.3723C35.6022 28.1066 39.337 18.8217 39.6063 7.69543L29.8784 31.3723H30.1477Z" fill="#D4BDB1"/>
<path d="M13.0455 31.3724L2.94421 5.90625C2.83998 5.98442 2.73576 6.0539 2.61416 6.09733C2.51862 6.14076 2.42307 6.16682 2.31885 6.19287V6.21025H2.61416C2.61416 6.31447 2.61416 6.41001 2.61416 6.51424C2.61416 6.65321 2.61416 6.79218 2.61416 6.93115L12.6634 31.3637H13.0369L13.0455 31.3724Z" fill="#D4BDB1"/>
<path d="M29.2094 31.3723L39.5539 6.2102C39.3107 6.18414 39.0936 6.10597 38.9025 5.98438L28.8359 31.3723H29.2094Z" fill="#D4BDB1"/>
<path d="M6.9486 6.21894L14.8351 31.3724H15.5039L8.11247 5.90626L8.06904 5.74992L8.06035 5.73254L6.89648 6.04523L6.9486 6.21894Z" fill="#D4BDB1"/>
<path d="M14.7396 5.47192L13.541 5.61958L13.6192 6.15808L17.4582 31.3723H18.0401L14.8091 6.01043L14.7396 5.47192Z" fill="#D4BDB1"/>
<path d="M21.7923 5.43713H20.585V6.12329V31.3723H21.7923V6.0625V5.43713Z" fill="#D4BDB1"/>
<path d="M26.8903 6.05386L23.668 31.3723H24.2499L28.0889 6.13203L28.1671 5.61958L26.9685 5.47192L26.8903 6.05386Z" fill="#D4BDB1"/>
<path d="M33.6221 5.81071L33.596 5.90626L26.2046 31.3724H26.8734L34.7599 6.21025L34.812 6.04523L33.6481 5.73254L33.6221 5.81071Z" fill="#D4BDB1"/>
<path d="M28.4972 34.004C29.1051 34.004 29.5915 33.5176 29.6089 32.9183H12.672C12.6894 33.5176 13.1758 34.004 13.7838 34.004H15.2777L11.291 60H30.9291L26.9424 34.004H28.4885H28.4972Z" fill="#D4BDB1"/>
</g>
<defs>
<clipPath id="clip0_621_25897">
<rect width="41.7776" height="60" fill="white"/>
</clipPath>
</defs>
</svg>
